<svg xmlns="http://www.w3.org/2000/svg" xmlns:xlink="http://www.w3.org/1999/xlink" xmlns:lucid="lucid" width="1162.47" height="1858.4"><g transform="translate(-17.525 -3.552713678800501e-14)" lucid:page-tab-id="0_0"><path d="M415.05 20c15.57 0 28.2 13.05 28.2 29.15 0 16.1-12.63 29.16-28.2 29.16h-84.6c-15.6 0-28.22-13.05-28.22-29.15 0-16.1 12.63-29.15 28.2-29.15z" stroke="#000" stroke-width="2" fill="#fff"/><use xlink:href="#a" transform="matrix(1,0,0,1,307.23426280668497,25.000000000000036) translate(47.025 28.1)"/><path d="M372.74 136.6l70.5 43.74-70.5 43.73-70.5-43.73z" stroke="#000" stroke-width="2" fill="#fff"/><use xlink:href="#b" transform="matrix(1,0,0,1,307.23426280668497,141.61016949152543) translate(31.574999999999996 42.6)"/><path d="M372.74 80.3v36.63" stroke="#000" stroke-width="2" fill="none"/><path d="M373.74 80.33h-2V79.3h2z"/><path d="M372.74 132.2l-4.63-14.27h9.28z" stroke="#000" stroke-width="2"/><path d="M525.42 209.5h182.23L696 253.2H513.75z" stroke="#000" stroke-width="2" fill="#fff"/><use xlink:href="#c" transform="matrix(1,0,0,1,518.7577355283534,214.49152542372877) translate(50.574999999999996 14.4)"/><use xlink:href="#d" transform="matrix(1,0,0,1,518.7577355283534,214.49152542372877) translate(52.55 36)"/><path d="M611.7 190h-2v-8.66h-53.03v-2h55.02zm-165.55-8.66v-2h81.17v2z"/><path d="M446.17 181.34h-2.64l1.62-1-1.62-1h2.64zM610.7 205.26L606.04 191h9.27z"/><path d="M610.7 208.5l-6.03-18.5h12.03zm-3.27-16.5L610.7 202l3.24-10.03z"/><use xlink:href="#e" transform="matrix(1,0,0,1,527.3174549364646,169.53898305084743) translate(0 14.4)"/><path d="M67.12 238.64h182.23l-11.66 43.73H55.45z" stroke="#000" stroke-width="2" fill="#fff"/><use xlink:href="#f" transform="matrix(1,0,0,1,60.456877964738496,243.64406779661016) translate(22.625 20.6)"/><use xlink:href="#g" transform="matrix(1,0,0,1,60.456877964738496,243.64406779661016) translate(123.42500000000001 20.6)"/><path d="M183.5 181.34h-35.58v37.8h-2v-39.8h37.58zm115.84 0h-92.9v-2h92.9z"/><path d="M300.34 180.34l1.6 1h-2.63v-2h2.65zM146.92 234.4l-4.63-14.26h9.26z"/><path d="M146.92 237.64l-6-18.5h12.02zm-3.25-16.5l3.25 10.03 3.26-10.03z"/><use xlink:href="#h" transform="matrix(1,0,0,1,183.50333165566846,169.53898305084743) translate(0 14.4)"/><path d="M610.7 296.95l70.5 43.73-70.5 43.73-70.5-43.72z" stroke="#000" stroke-width="2" fill="#fff"/><use xlink:href="#i" transform="matrix(1,0,0,1,545.1981696185619,301.9491525423729) translate(37.75 42.6)"/><use xlink:href="#j" transform="matrix(1,0,0,1,545.1981696185619,301.9491525423729) translate(55.7 42.6)"/><path d="M612.27 255.22V275h-1.56v2.27" stroke="#000" stroke-width="2" fill="none"/><path d="M613.27 255.25h-2v-1.03h2z"/><path d="M610.7 292.54l-4.63-14.27h9.27z" stroke="#000" stroke-width="2"/><path d="M487.2 339.68h50.1v2h-52.1v-44.32h2zm0-63.92h-2v-76.92h2z"/><path d="M538.3 340.68l1.6 1h-2.62v-2h2.63zM490.84 197.84h-9.27l4.63-14.26z"/><path d="M492.22 198.84H480.2l6-18.5zm-9.27-2h6.5l-3.25-10.03z"/><use xlink:href="#h" transform="matrix(1,0,0,1,474.72949074388094,275.7566579861381) translate(0 14.4)"/><path d="M425.62 479.15c0 12.08-11.83 21.87-26.44 21.87-14.6 0-26.44-9.8-26.44-21.87s11.84-21.86 26.44-21.86c14.6 0 26.44 9.78 26.44 21.85zm-45.14-15.46l37.4 30.92m-37.4 0l37.4-30.93" stroke="#000" stroke-width="2" fill="#fff"/><path d="M550.77 480.15H445.13v-2h105.64zm60.94 0h-31.58v-2h29.6v-91.57h2z"/><path d="M611.7 386.6h-2v-1.64l1 .62 1-.62zM444.13 483.8l-14.27-4.65 14.27-4.63z"/><path d="M445.13 485.16l-18.5-6 18.5-6.02zm-12.03-6l10.03 3.25v-6.5z"/><use xlink:href="#e" transform="matrix(1,0,0,1,550.7742104898093,468.3525423728814) translate(0 14.4)"/><path d="M152.4 340.68l70.5 43.73-70.5 43.74-70.5-43.73z" stroke="#000" stroke-width="2" fill="#fff"/><use xlink:href="#i" transform="matrix(1,0,0,1,86.89731205494702,345.677966101695) translate(37.75 42.6)"/><use xlink:href="#j" transform="matrix(1,0,0,1,86.89731205494702,345.677966101695) translate(55.7 42.6)"/><path d="M153.97 284.37v27.07h-1.56V321" stroke="#000" stroke-width="2" fill="none"/><path d="M154.97 284.4h-2v-1.03h2z"/><path d="M152.4 336.27L147.78 322h9.27z" stroke="#000" stroke-width="2"/><path d="M153.4 478.15h69.08v2H151.4V430.3h2zm199.84 0v2h-101.4v-2z"/><path d="M153.4 430.34h-2v-1.65l1 .6 1-.6zM368.5 479.15l-14.26 4.64v-9.28z"/><path d="M371.74 479.15l-18.5 6v-12zm-16.5 3.26l10.03-3.25-10.03-3.26z"/><use xlink:href="#e" transform="matrix(1,0,0,1,222.47828239444723,468.3525423728814) translate(0 14.4)"/><path d="M41 383.4h38v2H39V260.16h2zm87.42-201.2H41v56.35h-2V180.2h89.42z"/><path d="M80 384.4l1.6 1h-2.63v-2h2.64zM143.7 181.2l-14.28 4.65v-9.28z"/><path d="M146.92 181.2l-18.5 6.02V175.2zm-16.5 3.27l10.03-3.26-10.03-3.25z"/><use xlink:href="#h" transform="matrix(1,0,0,1,28.525,238.5459693767334) translate(0 14.4)"/><path d="M297.83 553.8h202.7V600h-202.7z" stroke="#000" stroke-width="2" fill="#fff"/><use xlink:href="#k" transform="matrix(1,0,0,1,302.8275237916506,558.7883068225534) translate(15.099999999999994 14.4)"/><use xlink:href="#l" transform="matrix(1,0,0,1,302.8275237916506,558.7883068225534) translate(64.1 14.4)"/><use xlink:href="#m" transform="matrix(1,0,0,1,302.8275237916506,558.7883068225534) translate(118 14.4)"/><use xlink:href="#n" transform="matrix(1,0,0,1,302.8275237916506,558.7883068225534) translate(32.14999999999999 36)"/><use xlink:href="#o" transform="matrix(1,0,0,1,302.8275237916506,558.7883068225534) translate(97 36)"/><path d="M399.18 503.02v31.28" stroke="#000" stroke-width="2" fill="none"/><path d="M399.15 502.02l1.03-.03v1.04h-2v-1.1z"/><path d="M399.18 549.55l-4.63-14.26h9.27z" stroke="#000" stroke-width="2"/><path d="M399.18 680L451 717.26 399.2 754.5l-51.82-37.24z" stroke="#000" stroke-width="2" fill="#fff"/><use xlink:href="#p" transform="matrix(1,0,0,1,352.3558905576258,685) translate(13.074999999999996 25.299999999999997)"/><use xlink:href="#q" transform="matrix(1,0,0,1,352.3558905576258,685) translate(17.025 46.9)"/><path d="M399.18 602v58.27" stroke="#000" stroke-width="2" fill="none"/><path d="M400.18 602.03h-2V601h2z"/><path d="M399.18 675.53l-4.63-14.26h9.27z" stroke="#000" stroke-width="2"/><path d="M677.88 760.5h-2v-42.24h-.3v-2h2.3zm-224.16-42.24v-2h62.06v2z"/><path d="M453.75 718.26h-2.42l1.4-1-1.4-1h2.42zM676.88 775.76l-4.63-14.26h9.27z"/><path d="M676.88 779l-6-18.5h12.02zm-3.25-16.5l3.25 10.03 3.26-10.03z"/><use xlink:href="#r" transform="matrix(1,0,0,1,515.7756025734647,706.4560050933901) translate(0 14.4)"/><use xlink:href="#l" transform="matrix(1,0,0,1,515.7756025734647,706.4560050933901) translate(46 14.4)"/><use xlink:href="#s" transform="matrix(1,0,0,1,515.7756025734647,706.4560050933901) translate(99.9 14.4)"/><path d="M192.83 741.8h-2v-13.74h2z"/><path/><path d="M191.83 757.07l-4.64-14.27h9.26z"/><path d="M191.83 760.3l-6.02-18.5h12.04zm-3.26-16.5l3.26 10.03 3.26-10.03z"/><use xlink:href="#t" transform="matrix(1,0,0,1,89.38699693120194,706.4560050933901) translate(0 14.4)"/><use xlink:href="#l" transform="matrix(1,0,0,1,89.38699693120194,706.4560050933901) translate(79.95 14.4)"/><use xlink:href="#u" transform="matrix(1,0,0,1,89.38699693120194,706.4560050933901) translate(133.85000000000002 14.4)"/><use xlink:href="#v" transform="matrix(1,0,0,1,89.38699693120194,706.4560050933901) translate(198.75000000000003 14.4)"/><path d="M411.27 941.37c0 10.3-10.15 18.63-22.67 18.63-12.52 0-22.67-8.34-22.67-18.63 0-10.3 10.15-18.63 22.67-18.63 12.52 0 22.67 8.34 22.67 18.63zm-38.7-13.17l32.06 26.35m-32.07 0l32.07-26.35M625.06 780H728.7v49.67H625.07z" stroke="#000" stroke-width="2" fill="#fff"/><use xlink:href="#w" transform="matrix(1,0,0,1,630.0582019248131,785) translate(14.524999999999999 14.4)"/><use xlink:href="#x" transform="matrix(1,0,0,1,630.0582019248131,785) translate(22.025 36)"/><path d="M191.83 840l45.34 31.05-45.34 31.04-45.35-31.05z" stroke="#000" stroke-width="2" fill="#fff"/><use xlink:href="#i" transform="matrix(1,0,0,1,151.47832882247803,845) translate(13.075000000000003 30.1)"/><use xlink:href="#y" transform="matrix(1,0,0,1,151.47832882247803,845) translate(31.025000000000002 30.1)"/><path d="M192.83 940.37h51.84v2h-53.84V904.3h2zm153.6 0v2h-72.4v-2z"/><path d="M192.83 904.33h-2v-1.7l1 .68 1-.68zM361.7 941.37L347.4 946v-9.26z"/><path d="M364.92 941.37l-18.5 6v-12zm-16.5 3.26l10.03-3.26-10.03-3.26z"/><use xlink:href="#e" transform="matrix(1,0,0,1,244.66741846931677,930.571997453305) translate(0 14.4)"/><path d="M676.88 860.65l45.35 31.05-45.35 31.04-45.34-31.04z" stroke="#000" stroke-width="2" fill="#fff"/><use xlink:href="#i" transform="matrix(1,0,0,1,636.5365307472912,865.6506530842931) translate(13.075000000000003 30.1)"/><use xlink:href="#y" transform="matrix(1,0,0,1,636.5365307472912,865.6506530842931) translate(31.025000000000002 30.1)"/><path d="M676.88 831.67v9.27" stroke="#000" stroke-width="2" fill="none"/><path d="M677.88 831.7h-2v-1.03h2z"/><path d="M676.88 856.2l-4.63-14.26h9.27z" stroke="#000" stroke-width="2"/><path d="M538.6 942.37H430.8v-2H538.6zm139.28 0H567.96v-2h107.92v-15.4h2z"/><path d="M677.88 924.98h-2v-1.7l1 .68 1-.7zM429.78 946l-14.27-4.63 14.28-4.63z"/><path d="M430.78 947.38l-18.5-6 18.5-6.02zm-12.03-6l10.03 3.25v-6.52z"/><use xlink:href="#e" transform="matrix(1,0,0,1,538.6121865500863,930.571997453305) translate(0 14.4)"/><path d="M590.77 890.7h38v2h-40v-86.46h2zm67.6-143.4h-67.6v37.34h-2V745.3h69.6z"/><path d="M629.77 891.7l1.46 1h-2.5v-2h2.5zM673.65 746.3l-14.27 4.63v-9.27z"/><path d="M676.88 746.3l-18.5 6v-12.02zm-16.5 3.25l10.03-3.26-10.02-3.27z"/><use xlink:href="#h" transform="matrix(1,0,0,1,578.2913623175205,784.6352036371283) translate(0 14.4)"/><path d="M105.7 870.05h38v2h-40V791.7h2zm67.62-131.16h-67.6v31.2h-2v-33.2h69.6z"/><path d="M144.7 871.05l1.47 1h-2.5v-2h2.5zM188.6 737.9l-14.28 4.63v-9.27z"/><path d="M191.83 737.9l-18.5 6V731.9zm-16.5 3.25l10.02-3.26-10.03-3.27z"/><use xlink:href="#h" transform="matrix(1,0,0,1,93.23316039270736,770.1108288028627) translate(0 14.4)"/><path d="M146.62 761.3h97.03l-6.62 24.84H140z" stroke="#000" stroke-width="2" fill="#fff"/><use xlink:href="#z" transform="matrix(1,0,0,1,145,766.3013061685864) translate(12.549999999999997 14.4)"/><path d="M193.65 788.14v24.82h-1.82v7.33" stroke="#000" stroke-width="2" fill="none"/><path d="M194.65 788.16h-2v-1.02h2z"/><path d="M191.83 835.55l-4.64-14.26h9.26z" stroke="#000" stroke-width="2"/><path d="M388.6 962v61.9" stroke="#000" stroke-width="2" fill="none"/><path d="M388.55 961h.9l.15-.03v1.06h-2v-1.13z"/><path d="M388.6 1039.16l-4.64-14.26h9.27z" stroke="#000" stroke-width="2"/><path d="M287.24 1043.4h202.7v53.2h-202.7z" stroke="#000" stroke-width="2" fill="#fff"/><use xlink:href="#k" transform="matrix(1,0,0,1,292.24420255856546,1048.4) translate(9.549999999999997 14.799999999999999)"/><use xlink:href="#A" transform="matrix(1,0,0,1,292.24420255856546,1048.4) translate(58.55 14.799999999999999)"/><use xlink:href="#B" transform="matrix(1,0,0,1,292.24420255856546,1048.4) translate(135.5 14.799999999999999)"/><use xlink:href="#C" transform="matrix(1,0,0,1,292.24420255856546,1048.4) translate(56.05 36.4)"/><path d="M297.9 1180h198.4l-10.68 40H287.24z" stroke="#000" stroke-width="2" fill="#fff"/><use xlink:href="#D" transform="matrix(1,0,0,1,292.24420255856546,1185) translate(22.599999999999994 18.6)"/><use xlink:href="#E" transform="matrix(1,0,0,1,292.24420255856546,1185) translate(75.55 18.6)"/><use xlink:href="#g" transform="matrix(1,0,0,1,292.24420255856546,1185) translate(139.45 18.6)"/><path d="M388.6 1098.6v61.9" stroke="#000" stroke-width="2" fill="none"/><path d="M389.6 1098.63h-2v-1.03h2z"/><path d="M388.6 1175.76l-4.64-14.26h9.27z" stroke="#000" stroke-width="2"/><path d="M287.24 1263.4h202.7v56.6h-202.7z" stroke="#000" stroke-width="2" fill="#fff"/><use xlink:href="#t" transform="matrix(1,0,0,1,292.24420255856546,1268.3999999999999) translate(16.049999999999997 16.299999999999997)"/><use xlink:href="#F" transform="matrix(1,0,0,1,292.24420255856546,1268.3999999999999) translate(96 16.299999999999997)"/><use xlink:href="#G" transform="matrix(1,0,0,1,292.24420255856546,1268.3999999999999) translate(72.525 37.9)"/><path d="M391.77 1222v21.9" stroke="#000" stroke-width="2" fill="none"/><path d="M392.77 1222.03h-2V1221h2z"/><path d="M391.76 1259.16l-4.64-14.26h9.27z" stroke="#000" stroke-width="2"/><path d="M388.6 1322v18.05h-.67v.55" stroke="#000" stroke-width="2" fill="none"/><path d="M389.6 1322.03h-2V1321h2z"/><path d="M387.93 1355.86l-4.63-14.26h9.27z" stroke="#000" stroke-width="2"/><path d="M286.58 1360.1h202.7v53.2H286.6z" stroke="#000" stroke-width="2" fill="#fff"/><use xlink:href="#k" transform="matrix(1,0,0,1,291.5796655087047,1365.1000000000001) translate(1.0749999999999886 14.799999999999999)"/><use xlink:href="#H" transform="matrix(1,0,0,1,291.5796655087047,1365.1000000000001) translate(50.07499999999999 14.799999999999999)"/><use xlink:href="#I" transform="matrix(1,0,0,1,291.5796655087047,1365.1000000000001) translate(103.02499999999999 14.799999999999999)"/><use xlink:href="#o" transform="matrix(1,0,0,1,291.5796655087047,1365.1000000000001) translate(64.575 36.4)"/><path d="M298.26 1453.4h194.86l-14.2 53.2H284.1z" stroke="#000" stroke-width="2" fill="#fff"/><use xlink:href="#J" transform="matrix(1,0,0,1,289.07815457311824,1458.4) translate(21.57499999999999 14.799999999999999)"/><use xlink:href="#K" transform="matrix(1,0,0,1,289.07815457311824,1458.4) translate(88.57499999999999 14.799999999999999)"/><use xlink:href="#L" transform="matrix(1,0,0,1,289.07815457311824,1458.4) translate(31.025000000000006 36.4)"/><use xlink:href="#M" transform="matrix(1,0,0,1,289.07815457311824,1458.4) translate(79.97500000000001 36.4)"/><use xlink:href="#N" transform="matrix(1,0,0,1,289.07815457311824,1458.4) translate(131.97500000000002 36.4)"/><path d="M387.93 1415.3v18.05h.67v.55" stroke="#000" stroke-width="2" fill="none"/><path d="M388.93 1415.33h-2v-1.03h2z"/><path d="M388.6 1449.16l-4.64-14.26h9.27z" stroke="#000" stroke-width="2"/><path d="M284.08 1535.9h205.87v74.8H284.08z" stroke="#000" stroke-width="2" fill="#fff"/><use xlink:href="#O" transform="matrix(1,0,0,1,289.07815457311824,1540.8999999999999) translate(16.549999999999997 25.299999999999997)"/><use xlink:href="#L" transform="matrix(1,0,0,1,289.07815457311824,1540.8999999999999) translate(86.5 25.299999999999997)"/><use xlink:href="#P" transform="matrix(1,0,0,1,289.07815457311824,1540.8999999999999) translate(135.45 25.299999999999997)"/><use xlink:href="#Q" transform="matrix(1,0,0,1,289.07815457311824,1540.8999999999999) translate(62.574999999999996 46.9)"/><path d="M388.6 1508.6v9.4" stroke="#000" stroke-width="2" fill="none"/><path d="M389.6 1508.63h-2v-1.03h2z"/><path d="M389.9 1531.68l-5.96-13.77 9.22-.86z" stroke="#000" stroke-width="2"/><path d="M296.68 1640h194.86l-14.2 53.2H282.5z" stroke="#000" stroke-width="2" fill="#fff"/><use xlink:href="#R" transform="matrix(1,0,0,1,287.49513058039463,1645) translate(31.07499999999999 14.799999999999999)"/><use xlink:href="#S" transform="matrix(1,0,0,1,287.49513058039463,1645) translate(86.02499999999999 14.799999999999999)"/><use xlink:href="#T" transform="matrix(1,0,0,1,287.49513058039463,1645) translate(138.925 14.799999999999999)"/><use xlink:href="#U" transform="matrix(1,0,0,1,287.49513058039463,1645) translate(23.07499999999999 36.4)"/><use xlink:href="#V" transform="matrix(1,0,0,1,287.49513058039463,1645) translate(87.07499999999999 36.4)"/><use xlink:href="#W" transform="matrix(1,0,0,1,287.49513058039463,1645) translate(110.02499999999999 36.4)"/><path d="M387.02 1612.7v7.8" stroke="#000" stroke-width="2" fill="none"/><path d="M388.02 1612.73h-2v-1.03h2z"/><path d="M387.02 1635.76l-4.64-14.26h9.27z" stroke="#000" stroke-width="2"/><path d="M285.16 1720h207.96l-21.33 80H263.82z" stroke="#000" stroke-width="2" fill="#fff"/><g><use xlink:href="#X" transform="matrix(1,0,0,1,268.8305850353081,1725) translate(52.05 17.5)"/><use xlink:href="#Y" transform="matrix(1,0,0,1,268.8305850353081,1725) translate(121.95 17.5)"/><use xlink:href="#Z" transform="matrix(1,0,0,1,268.8305850353081,1725) translate(35.125 39.1)"/><use xlink:href="#aa" transform="matrix(1,0,0,1,268.8305850353081,1725) translate(85.975 39.1)"/><use xlink:href="#ab" transform="matrix(1,0,0,1,268.8305850353081,1725) translate(116.925 39.1)"/><use xlink:href="#ac" transform="matrix(1,0,0,1,268.8305850353081,1725) translate(53.099999999999994 60.7)"/><use xlink:href="#ad" transform="matrix(1,0,0,1,268.8305850353081,1725) translate(112.95 60.7)"/></g><path d="M387.02 1695.2v5.3" stroke="#000" stroke-width="2" fill="none"/><path d="M388.02 1695.23h-2v-1.03h2z"/><path d="M387.02 1715.76l-4.64-14.26h9.27z" stroke="#000" stroke-width="2"/><path d="M110.2 1798.4h36.28v24l-18.14 16-18.15-16z" stroke="#000" stroke-width="2" fill="#fff"/><g><use xlink:href="#ae" transform="matrix(1,0,0,1,115.19203560141915,1803.4) translate(8.5 18.6)"/></g><path d="M378.48 1802v39H205.15v-83.6h-71.08v21.5" stroke="#000" stroke-width="2" fill="none"/><path d="M379.48 1802.03h-2V1801h2z"/><path d="M134.07 1794.16l-4.64-14.26h9.27z" stroke="#000" stroke-width="2"/><path d="M1020 20h40v24l-20 16-20-16z" stroke="#000" stroke-width="2" fill="#fff"/><g><use xlink:href="#ae" transform="matrix(1,0,0,1,1025,25.000000000000036) translate(10.5 18.6)"/></g><path d="M920 100h240v53.2H920z" stroke="#000" stroke-width="2" fill="#fff"/><g><use xlink:href="#O" transform="matrix(1,0,0,1,925,105) translate(2.5999999999999943 25.6)"/><use xlink:href="#af" transform="matrix(1,0,0,1,925,105) translate(72.55 25.6)"/><use xlink:href="#ag" transform="matrix(1,0,0,1,925,105) translate(132.5 25.6)"/><use xlink:href="#ah" transform="matrix(1,0,0,1,925,105) translate(167.5 25.6)"/></g><path d="M1040 62.28V80.5" stroke="#000" stroke-width="2" fill="none"/><path d="M1041 62.3h-2V60.5l1 .8 1-.8z"/><path d="M1040 95.76l-4.64-14.26h9.28z" stroke="#000" stroke-width="2"/><path d="M1040 155.2v18.5" stroke="#000" stroke-width="2" fill="none"/><path d="M1041 155.23h-2v-1.03h2z"/><path d="M1040 188.96l-4.64-14.26h9.28z" stroke="#000" stroke-width="2"/><path d="M920 193.2h240v53.2H920z" stroke="#000" stroke-width="2" fill="#fff"/><g><use xlink:href="#ai" transform="matrix(1,0,0,1,925,198.19999999999996) translate(0.09999999999999432 25.6)"/><use xlink:href="#aj" transform="matrix(1,0,0,1,925,198.19999999999996) translate(63.95 25.6)"/><use xlink:href="#ag" transform="matrix(1,0,0,1,925,198.19999999999996) translate(139.95000000000002 25.6)"/><use xlink:href="#ak" transform="matrix(1,0,0,1,925,198.19999999999996) translate(174.95000000000002 25.6)"/></g><path d="M920 296.95h240v53.2H920z" stroke="#000" stroke-width="2" fill="#fff"/><g><use xlink:href="#al" transform="matrix(1,0,0,1,925,301.9491525423729) translate(54.099999999999994 25.6)"/><use xlink:href="#am" transform="matrix(1,0,0,1,925,301.9491525423729) translate(113 25.6)"/></g><path d="M1040 248.4v29.05" stroke="#000" stroke-width="2" fill="none"/><path d="M1041 248.43h-2v-1.03h2z"/><path d="M1040 292.7l-4.64-14.25h9.28z" stroke="#000" stroke-width="2"/><path d="M1082.3 420c15.58 0 28.2 13.05 28.2 29.15 0 16.1-12.62 29.16-28.2 29.16h-84.6c-15.58 0-28.2-13.05-28.2-29.15 0-16.1 12.62-29.15 28.2-29.15z" stroke="#000" stroke-width="2" fill="#fff"/><g><use xlink:href="#an" transform="matrix(1,0,0,1,974.4921757594439,425) translate(47.5 28.1)"/></g><path d="M1040 352.15v48.35" stroke="#000" stroke-width="2" fill="none"/><path d="M1041 352.17h-2v-1.02h2z"/><path d="M1040 415.76l-4.64-14.26h9.28z" stroke="#000" stroke-width="2"/><defs><path d="M185-189c-5-48-123-54-124 2 14 75 158 14 163 119 3 78-121 87-175 55-17-10-28-26-33-46l33-7c5 56 141 63 141-1 0-78-155-14-162-118-5-82 145-84 179-34 5 7 8 16 11 25" id="ao"/><path d="M59-47c-2 24 18 29 38 22v24C64 9 27 4 27-40v-127H5v-23h24l9-43h21v43h35v23H59v120" id="ap"/><path d="M141-36C126-15 110 5 73 4 37 3 15-17 15-53c-1-64 63-63 125-63 3-35-9-54-41-54-24 1-41 7-42 31l-33-3c5-37 33-52 76-52 45 0 72 20 72 64v82c-1 20 7 32 28 27v20c-31 9-61-2-59-35zM48-53c0 20 12 33 32 33 41-3 63-29 60-74-43 2-92-5-92 41" id="aq"/><path d="M114-163C36-179 61-72 57 0H25l-1-190h30c1 12-1 29 2 39 6-27 23-49 58-41v29" id="ar"/><g id="a"><use transform="matrix(0.05,0,0,0.05,0,0)" xlink:href="#ao"/><use transform="matrix(0.05,0,0,0.05,12,0)" xlink:href="#ap"/><use transform="matrix(0.05,0,0,0.05,17,0)" xlink:href="#aq"/><use transform="matrix(0.05,0,0,0.05,27,0)" xlink:href="#ar"/><use transform="matrix(0.05,0,0,0.05,32.95,0)" xlink:href="#ap"/></g><path d="M30-248c118-7 216 8 213 122C240-48 200 0 122 0H30v-248zM63-27c89 8 146-16 146-99s-60-101-146-95v194" id="as"/><path d="M100-194c63 0 86 42 84 106H49c0 40 14 67 53 68 26 1 43-12 49-29l28 8c-11 28-37 45-77 45C44 4 14-33 15-96c1-61 26-98 85-98zm52 81c6-60-76-77-97-28-3 7-6 17-6 28h103" id="at"/><path d="M96-169c-40 0-48 33-48 73s9 75 48 75c24 0 41-14 43-38l32 2c-6 37-31 61-74 61-59 0-76-41-82-99-10-93 101-131 147-64 4 7 5 14 7 22l-32 3c-4-21-16-35-41-35" id="au"/><path d="M24-231v-30h32v30H24zM24 0v-190h32V0H24" id="av"/><path d="M135-143c-3-34-86-38-87 0 15 53 115 12 119 90S17 21 10-45l28-5c4 36 97 45 98 0-10-56-113-15-118-90-4-57 82-63 122-42 12 7 21 19 24 35" id="aw"/><path d="M100-194c62-1 85 37 85 99 1 63-27 99-86 99S16-35 15-95c0-66 28-99 85-99zM99-20c44 1 53-31 53-75 0-43-8-75-51-75s-53 32-53 75 10 74 51 75" id="ax"/><path d="M117-194c89-4 53 116 60 194h-32v-121c0-31-8-49-39-48C34-167 62-67 57 0H25l-1-190h30c1 10-1 24 2 32 11-22 29-35 61-36" id="ay"/><g id="b"><use transform="matrix(0.05,0,0,0.05,0,0)" xlink:href="#as"/><use transform="matrix(0.05,0,0,0.05,12.950000000000001,0)" xlink:href="#at"/><use transform="matrix(0.05,0,0,0.05,22.950000000000003,0)" xlink:href="#au"/><use transform="matrix(0.05,0,0,0.05,31.950000000000003,0)" xlink:href="#av"/><use transform="matrix(0.05,0,0,0.05,35.900000000000006,0)" xlink:href="#aw"/><use transform="matrix(0.05,0,0,0.05,44.900000000000006,0)" xlink:href="#av"/><use transform="matrix(0.05,0,0,0.05,48.85000000000001,0)" xlink:href="#ax"/><use transform="matrix(0.05,0,0,0.05,58.85,0)" xlink:href="#ay"/></g><path d="M232-93c-1 65-40 97-104 97C67 4 28-28 28-90v-158h33c8 89-33 224 67 224 102 0 64-133 71-224h33v155" id="az"/><path d="M210-169c-67 3-38 105-44 169h-31v-121c0-29-5-50-35-48C34-165 62-65 56 0H25l-1-190h30c1 10-1 24 2 32 10-44 99-50 107 0 11-21 27-35 58-36 85-2 47 119 55 194h-31v-121c0-29-5-49-35-48" id="aA"/><g id="c"><use transform="matrix(0.05,0,0,0.05,0,0)" xlink:href="#az"/><use transform="matrix(0.05,0,0,0.05,12.950000000000001,0)" xlink:href="#aw"/><use transform="matrix(0.05,0,0,0.05,21.950000000000003,0)" xlink:href="#at"/><use transform="matrix(0.05,0,0,0.05,31.950000000000003,0)" xlink:href="#ar"/><use transform="matrix(0.05,0,0,0.05,37.900000000000006,0)" xlink:href="#ay"/><use transform="matrix(0.05,0,0,0.05,47.900000000000006,0)" xlink:href="#aq"/><use transform="matrix(0.05,0,0,0.05,57.900000000000006,0)" xlink:href="#aA"/><use transform="matrix(0.05,0,0,0.05,72.85000000000001,0)" xlink:href="#at"/></g><path d="M30-248c87 1 191-15 191 75 0 78-77 80-158 76V0H30v-248zm33 125c57 0 124 11 124-50 0-59-68-47-124-48v98" id="aB"/><path d="M206 0h-36l-40-164L89 0H53L-1-190h32L70-26l43-164h34l41 164 42-164h31" id="aC"/><path d="M85-194c31 0 48 13 60 33l-1-100h32l1 261h-30c-2-10 0-23-3-31C134-8 116 4 85 4 32 4 16-35 15-94c0-66 23-100 70-100zm9 24c-40 0-46 34-46 75 0 40 6 74 45 74 42 0 51-32 51-76 0-42-9-74-50-73" id="aD"/><g id="d"><use transform="matrix(0.05,0,0,0.05,0,0)" xlink:href="#aB"/><use transform="matrix(0.05,0,0,0.05,12,0)" xlink:href="#aq"/><use transform="matrix(0.05,0,0,0.05,22,0)" xlink:href="#aw"/><use transform="matrix(0.05,0,0,0.05,31,0)" xlink:href="#aw"/><use transform="matrix(0.05,0,0,0.05,40,0)" xlink:href="#aC"/><use transform="matrix(0.05,0,0,0.05,52.95,0)" xlink:href="#ax"/><use transform="matrix(0.05,0,0,0.05,62.95,0)" xlink:href="#ar"/><use transform="matrix(0.05,0,0,0.05,68.9,0)" xlink:href="#aD"/></g><path d="M137-103V0h-34v-103L8-248h37l75 118 75-118h37" id="aE"/><g id="e"><use transform="matrix(0.05,0,0,0.05,0,0)" xlink:href="#aE"/><use transform="matrix(0.05,0,0,0.05,10.35,0)" xlink:href="#at"/><use transform="matrix(0.05,0,0,0.05,20.35,0)" xlink:href="#aw"/></g><path d="M233-177c-1 41-23 64-60 70L243 0h-38l-65-103H63V0H30v-248c88 3 205-21 203 71zM63-129c60-2 137 13 137-47 0-61-80-42-137-45v92" id="aF"/><path d="M177-190C167-65 218 103 67 71c-23-6-38-20-44-43l32-5c15 47 100 32 89-28v-30C133-14 115 1 83 1 29 1 15-40 15-95c0-56 16-97 71-98 29-1 48 16 59 35 1-10 0-23 2-32h30zM94-22c36 0 50-32 50-73 0-42-14-75-50-75-39 0-46 34-46 75s6 73 46 73" id="aG"/><g id="f"><use transform="matrix(0.05,0,0,0.05,0,0)" xlink:href="#aF"/><use transform="matrix(0.05,0,0,0.05,12.950000000000001,0)" xlink:href="#at"/><use transform="matrix(0.05,0,0,0.05,22.950000000000003,0)" xlink:href="#aG"/><use transform="matrix(0.05,0,0,0.05,32.95,0)" xlink:href="#av"/><use transform="matrix(0.05,0,0,0.05,36.900000000000006,0)" xlink:href="#aw"/><use transform="matrix(0.05,0,0,0.05,45.900000000000006,0)" xlink:href="#ap"/><use transform="matrix(0.05,0,0,0.05,50.900000000000006,0)" xlink:href="#ar"/><use transform="matrix(0.05,0,0,0.05,56.85,0)" xlink:href="#aq"/><use transform="matrix(0.05,0,0,0.05,66.85000000000001,0)" xlink:href="#ap"/><use transform="matrix(0.05,0,0,0.05,71.85000000000001,0)" xlink:href="#av"/><use transform="matrix(0.05,0,0,0.05,75.80000000000001,0)" xlink:href="#ax"/><use transform="matrix(0.05,0,0,0.05,85.80000000000001,0)" xlink:href="#ay"/></g><g id="g"><use transform="matrix(0.05,0,0,0.05,0,0)" xlink:href="#as"/><use transform="matrix(0.05,0,0,0.05,12.950000000000001,0)" xlink:href="#aq"/><use transform="matrix(0.05,0,0,0.05,22.950000000000003,0)" xlink:href="#ap"/><use transform="matrix(0.05,0,0,0.05,27.950000000000003,0)" xlink:href="#aq"/></g><path d="M190 0L58-211 59 0H30v-248h39L202-35l-2-213h31V0h-41" id="aH"/><g id="h"><use transform="matrix(0.05,0,0,0.05,0,0)" xlink:href="#aH"/><use transform="matrix(0.05,0,0,0.05,12.950000000000001,0)" xlink:href="#ax"/></g><g id="i"><use transform="matrix(0.05,0,0,0.05,0,0)" xlink:href="#av"/><use transform="matrix(0.05,0,0,0.05,3.95,0)" xlink:href="#aw"/></g><path d="M137 0h-34L2-248h35l83 218 83-218h36" id="aI"/><path d="M24 0v-261h32V0H24" id="aJ"/><g id="j"><use transform="matrix(0.05,0,0,0.05,0,0)" xlink:href="#aI"/><use transform="matrix(0.05,0,0,0.05,10.65,0)" xlink:href="#aq"/><use transform="matrix(0.05,0,0,0.05,20.65,0)" xlink:href="#aJ"/><use transform="matrix(0.05,0,0,0.05,24.599999999999998,0)" xlink:href="#av"/><use transform="matrix(0.05,0,0,0.05,28.549999999999997,0)" xlink:href="#aD"/></g><path d="M140-251c81 0 123 46 123 126C263-46 219 4 140 4 59 4 17-45 17-125s42-126 123-126zm0 227c63 0 89-41 89-101s-29-99-89-99c-61 0-89 39-89 99S79-25 140-24" id="aK"/><path d="M115-194c55 1 70 41 70 98S169 2 115 4C84 4 66-9 55-30l1 105H24l-1-265h31l2 30c10-21 28-34 59-34zm-8 174c40 0 45-34 45-75s-6-73-45-74c-42 0-51 32-51 76 0 43 10 73 51 73" id="aL"/><g id="k"><use transform="matrix(0.05,0,0,0.05,0,0)" xlink:href="#aK"/><use transform="matrix(0.05,0,0,0.05,14,0)" xlink:href="#aL"/><use transform="matrix(0.05,0,0,0.05,24,0)" xlink:href="#at"/><use transform="matrix(0.05,0,0,0.05,34,0)" xlink:href="#ay"/></g><path d="M240 0l2-218c-23 76-54 145-80 218h-23L58-218 59 0H30v-248h44l77 211c21-75 51-140 76-211h43V0h-30" id="aM"/><g id="l"><use transform="matrix(0.05,0,0,0.05,0,0)" xlink:href="#aM"/><use transform="matrix(0.05,0,0,0.05,14.950000000000001,0)" xlink:href="#ax"/><use transform="matrix(0.05,0,0,0.05,24.950000000000003,0)" xlink:href="#aD"/><use transform="matrix(0.05,0,0,0.05,34.95,0)" xlink:href="#at"/><use transform="matrix(0.05,0,0,0.05,44.95,0)" xlink:href="#aJ"/></g><path d="M205 0l-28-72H64L36 0H1l101-248h38L239 0h-34zm-38-99l-47-123c-12 45-31 82-46 123h93" id="aN"/><g id="m"><use transform="matrix(0.05,0,0,0.05,0,0)" xlink:href="#aN"/><use transform="matrix(0.05,0,0,0.05,12,0)" xlink:href="#ay"/><use transform="matrix(0.05,0,0,0.05,22,0)" xlink:href="#aw"/><use transform="matrix(0.05,0,0,0.05,31,0)" xlink:href="#aC"/><use transform="matrix(0.05,0,0,0.05,43.95,0)" xlink:href="#at"/><use transform="matrix(0.05,0,0,0.05,53.95,0)" xlink:href="#ar"/></g><path d="M212-179c-10-28-35-45-73-45-59 0-87 40-87 99 0 60 29 101 89 101 43 0 62-24 78-52l27 14C228-24 195 4 139 4 59 4 22-46 18-125c-6-104 99-153 187-111 19 9 31 26 39 46" id="aO"/><g id="n"><use transform="matrix(0.05,0,0,0.05,0,0)" xlink:href="#aO"/><use transform="matrix(0.05,0,0,0.05,12.950000000000001,0)" xlink:href="#ar"/><use transform="matrix(0.05,0,0,0.05,18.900000000000002,0)" xlink:href="#at"/><use transform="matrix(0.05,0,0,0.05,28.900000000000002,0)" xlink:href="#aq"/><use transform="matrix(0.05,0,0,0.05,38.900000000000006,0)" xlink:href="#ap"/><use transform="matrix(0.05,0,0,0.05,43.900000000000006,0)" xlink:href="#ax"/><use transform="matrix(0.05,0,0,0.05,53.900000000000006,0)" xlink:href="#ar"/></g><path d="M266 0h-40l-56-210L115 0H75L2-248h35L96-30l15-64 43-154h32l59 218 59-218h35" id="aP"/><g id="o"><use transform="matrix(0.05,0,0,0.05,0,0)" xlink:href="#aP"/><use transform="matrix(0.05,0,0,0.05,16.95,0)" xlink:href="#av"/><use transform="matrix(0.05,0,0,0.05,20.9,0)" xlink:href="#ay"/><use transform="matrix(0.05,0,0,0.05,30.899999999999995,0)" xlink:href="#aD"/><use transform="matrix(0.05,0,0,0.05,40.9,0)" xlink:href="#ax"/><use transform="matrix(0.05,0,0,0.05,50.9,0)" xlink:href="#aC"/></g><g id="p"><use transform="matrix(0.05,0,0,0.05,0,0)" xlink:href="#aO"/><use transform="matrix(0.05,0,0,0.05,12.950000000000001,0)" xlink:href="#ar"/><use transform="matrix(0.05,0,0,0.05,18.900000000000002,0)" xlink:href="#at"/><use transform="matrix(0.05,0,0,0.05,28.900000000000002,0)" xlink:href="#aq"/><use transform="matrix(0.05,0,0,0.05,38.900000000000006,0)" xlink:href="#ap"/><use transform="matrix(0.05,0,0,0.05,43.900000000000006,0)" xlink:href="#av"/><use transform="matrix(0.05,0,0,0.05,47.85000000000001,0)" xlink:href="#ax"/><use transform="matrix(0.05,0,0,0.05,57.85,0)" xlink:href="#ay"/></g><path d="M106-169C34-169 62-67 57 0H25v-261h32l-1 103c12-21 28-36 61-36 89 0 53 116 60 194h-32v-121c2-32-8-49-39-48" id="aQ"/><g id="q"><use transform="matrix(0.05,0,0,0.05,0,0)" xlink:href="#aM"/><use transform="matrix(0.05,0,0,0.05,14.950000000000001,0)" xlink:href="#at"/><use transform="matrix(0.05,0,0,0.05,24.950000000000003,0)" xlink:href="#ap"/><use transform="matrix(0.05,0,0,0.05,29.950000000000003,0)" xlink:href="#aQ"/><use transform="matrix(0.05,0,0,0.05,39.95,0)" xlink:href="#ax"/><use transform="matrix(0.05,0,0,0.05,49.95,0)" xlink:href="#aD"/></g><g id="r"><use transform="matrix(0.05,0,0,0.05,0,0)" xlink:href="#ao"/><use transform="matrix(0.05,0,0,0.05,12,0)" xlink:href="#au"/><use transform="matrix(0.05,0,0,0.05,21,0)" xlink:href="#aq"/><use transform="matrix(0.05,0,0,0.05,31,0)" xlink:href="#ay"/></g><g id="s"><use transform="matrix(0.05,0,0,0.05,0,0)" xlink:href="#aN"/><use transform="matrix(0.05,0,0,0.05,12,0)" xlink:href="#ay"/><use transform="matrix(0.05,0,0,0.05,22,0)" xlink:href="#aw"/><use transform="matrix(0.05,0,0,0.05,31,0)" xlink:href="#aC"/><use transform="matrix(0.05,0,0,0.05,43.95,0)" xlink:href="#at"/><use transform="matrix(0.05,0,0,0.05,53.95,0)" xlink:href="#ar"/></g><path d="M143 4C61 4 22-44 18-125c-5-107 100-154 193-111 17 8 29 25 37 43l-32 9c-13-25-37-40-76-40-61 0-88 39-88 99 0 61 29 100 91 101 35 0 62-11 79-27v-45h-74v-28h105v86C228-13 192 4 143 4" id="aR"/><g id="t"><use transform="matrix(0.05,0,0,0.05,0,0)" xlink:href="#aR"/><use transform="matrix(0.05,0,0,0.05,14,0)" xlink:href="#at"/><use transform="matrix(0.05,0,0,0.05,24,0)" xlink:href="#ay"/><use transform="matrix(0.05,0,0,0.05,34,0)" xlink:href="#at"/><use transform="matrix(0.05,0,0,0.05,44,0)" xlink:href="#ar"/><use transform="matrix(0.05,0,0,0.05,49.95,0)" xlink:href="#aq"/><use transform="matrix(0.05,0,0,0.05,59.95,0)" xlink:href="#ap"/><use transform="matrix(0.05,0,0,0.05,64.95,0)" xlink:href="#at"/></g><g id="u"><use transform="matrix(0.05,0,0,0.05,0,0)" xlink:href="#aN"/><use transform="matrix(0.05,0,0,0.05,12,0)" xlink:href="#ay"/><use transform="matrix(0.05,0,0,0.05,22,0)" xlink:href="#aw"/><use transform="matrix(0.05,0,0,0.05,31,0)" xlink:href="#aC"/><use transform="matrix(0.05,0,0,0.05,43.95,0)" xlink:href="#at"/><use transform="matrix(0.05,0,0,0.05,53.95,0)" xlink:href="#ar"/></g><path d="M84 4C-5 8 30-112 23-190h32v120c0 31 7 50 39 49 72-2 45-101 50-169h31l1 190h-30c-1-10 1-25-2-33-11 22-28 36-60 37" id="aS"/><g id="v"><use transform="matrix(0.05,0,0,0.05,0,0)" xlink:href="#aM"/><use transform="matrix(0.05,0,0,0.05,14.950000000000001,0)" xlink:href="#aq"/><use transform="matrix(0.05,0,0,0.05,24.950000000000003,0)" xlink:href="#ay"/><use transform="matrix(0.05,0,0,0.05,34.95,0)" xlink:href="#aS"/><use transform="matrix(0.05,0,0,0.05,44.95,0)" xlink:href="#aq"/><use transform="matrix(0.05,0,0,0.05,54.95,0)" xlink:href="#aJ"/></g><g id="w"><use transform="matrix(0.05,0,0,0.05,0,0)" xlink:href="#aB"/><use transform="matrix(0.05,0,0,0.05,12,0)" xlink:href="#ar"/><use transform="matrix(0.05,0,0,0.05,17.95,0)" xlink:href="#ax"/><use transform="matrix(0.05,0,0,0.05,27.950000000000003,0)" xlink:href="#au"/><use transform="matrix(0.05,0,0,0.05,36.95,0)" xlink:href="#at"/><use transform="matrix(0.05,0,0,0.05,46.95,0)" xlink:href="#aw"/><use transform="matrix(0.05,0,0,0.05,55.95,0)" xlink:href="#aw"/></g><path d="M33 0v-248h34V0H33" id="aT"/><g id="x"><use transform="matrix(0.05,0,0,0.05,0,0)" xlink:href="#aT"/><use transform="matrix(0.05,0,0,0.05,5,0)" xlink:href="#aA"/><use transform="matrix(0.05,0,0,0.05,19.950000000000003,0)" xlink:href="#aq"/><use transform="matrix(0.05,0,0,0.05,29.950000000000003,0)" xlink:href="#aG"/><use transform="matrix(0.05,0,0,0.05,39.95,0)" xlink:href="#at"/></g><path d="M108 0H70L1-190h34L89-25l56-165h34" id="aU"/><g id="y"><use transform="matrix(0.05,0,0,0.05,0,0)" xlink:href="#aU"/><use transform="matrix(0.05,0,0,0.05,9,0)" xlink:href="#aq"/><use transform="matrix(0.05,0,0,0.05,19,0)" xlink:href="#aJ"/><use transform="matrix(0.05,0,0,0.05,22.95,0)" xlink:href="#av"/><use transform="matrix(0.05,0,0,0.05,26.899999999999995,0)" xlink:href="#aD"/></g><g id="z"><use transform="matrix(0.05,0,0,0.05,0,0)" xlink:href="#aN"/><use transform="matrix(0.05,0,0,0.05,12,0)" xlink:href="#ay"/><use transform="matrix(0.05,0,0,0.05,22,0)" xlink:href="#aw"/><use transform="matrix(0.05,0,0,0.05,31,0)" xlink:href="#aC"/><use transform="matrix(0.05,0,0,0.05,43.95,0)" xlink:href="#at"/><use transform="matrix(0.05,0,0,0.05,53.95,0)" xlink:href="#ar"/><use transform="matrix(0.05,0,0,0.05,59.900000000000006,0)" xlink:href="#aw"/></g><path d="M140-251c81 0 123 46 123 126C263-53 228-8 163 1c7 30 30 48 69 40v23c-55 16-95-15-103-61C56-3 17-48 17-125c0-80 42-126 123-126zm0 227c63 0 89-41 89-101s-29-99-89-99c-61 0-89 39-89 99S79-25 140-24" id="aV"/><g id="A"><use transform="matrix(0.05,0,0,0.05,0,0)" xlink:href="#aV"/><use transform="matrix(0.05,0,0,0.05,14,0)" xlink:href="#aS"/><use transform="matrix(0.05,0,0,0.05,24,0)" xlink:href="#at"/><use transform="matrix(0.05,0,0,0.05,34,0)" xlink:href="#aw"/><use transform="matrix(0.05,0,0,0.05,43,0)" xlink:href="#ap"/><use transform="matrix(0.05,0,0,0.05,48,0)" xlink:href="#av"/><use transform="matrix(0.05,0,0,0.05,51.95,0)" xlink:href="#ax"/><use transform="matrix(0.05,0,0,0.05,61.95,0)" xlink:href="#ay"/></g><g id="B"><use transform="matrix(0.05,0,0,0.05,0,0)" xlink:href="#aB"/><use transform="matrix(0.05,0,0,0.05,12,0)" xlink:href="#aq"/><use transform="matrix(0.05,0,0,0.05,22,0)" xlink:href="#aL"/><use transform="matrix(0.05,0,0,0.05,32,0)" xlink:href="#at"/><use transform="matrix(0.05,0,0,0.05,42,0)" xlink:href="#ar"/></g><g id="C"><use transform="matrix(0.05,0,0,0.05,0,0)" xlink:href="#aR"/><use transform="matrix(0.05,0,0,0.05,14,0)" xlink:href="#at"/><use transform="matrix(0.05,0,0,0.05,24,0)" xlink:href="#ay"/><use transform="matrix(0.05,0,0,0.05,34,0)" xlink:href="#at"/><use transform="matrix(0.05,0,0,0.05,44,0)" xlink:href="#ar"/><use transform="matrix(0.05,0,0,0.05,49.95,0)" xlink:href="#aq"/><use transform="matrix(0.05,0,0,0.05,59.95,0)" xlink:href="#ap"/><use transform="matrix(0.05,0,0,0.05,64.95,0)" xlink:href="#ax"/><use transform="matrix(0.05,0,0,0.05,74.95,0)" xlink:href="#ar"/></g><g id="D"><use transform="matrix(0.05,0,0,0.05,0,0)" xlink:href="#aB"/><use transform="matrix(0.05,0,0,0.05,12,0)" xlink:href="#aq"/><use transform="matrix(0.05,0,0,0.05,22,0)" xlink:href="#aL"/><use transform="matrix(0.05,0,0,0.05,32,0)" xlink:href="#at"/><use transform="matrix(0.05,0,0,0.05,42,0)" xlink:href="#ar"/></g><path d="M197 0v-115H63V0H30v-248h33v105h134v-105h34V0h-34" id="aW"/><g id="E"><use transform="matrix(0.05,0,0,0.05,0,0)" xlink:href="#aW"/><use transform="matrix(0.05,0,0,0.05,12.950000000000001,0)" xlink:href="#at"/><use transform="matrix(0.05,0,0,0.05,22.950000000000003,0)" xlink:href="#aq"/><use transform="matrix(0.05,0,0,0.05,32.95,0)" xlink:href="#aD"/><use transform="matrix(0.05,0,0,0.05,42.95,0)" xlink:href="#at"/><use transform="matrix(0.05,0,0,0.05,52.95,0)" xlink:href="#ar"/></g><g id="F"><use transform="matrix(0.05,0,0,0.05,0,0)" xlink:href="#aV"/><use transform="matrix(0.05,0,0,0.05,14,0)" xlink:href="#aS"/><use transform="matrix(0.05,0,0,0.05,24,0)" xlink:href="#at"/><use transform="matrix(0.05,0,0,0.05,34,0)" xlink:href="#aw"/><use transform="matrix(0.05,0,0,0.05,43,0)" xlink:href="#ap"/><use transform="matrix(0.05,0,0,0.05,48,0)" xlink:href="#av"/><use transform="matrix(0.05,0,0,0.05,51.95,0)" xlink:href="#ax"/><use transform="matrix(0.05,0,0,0.05,61.95,0)" xlink:href="#ay"/><use transform="matrix(0.05,0,0,0.05,71.95,0)" xlink:href="#aw"/></g><g id="G"><use transform="matrix(0.05,0,0,0.05,0,0)" xlink:href="#aB"/><use transform="matrix(0.05,0,0,0.05,12,0)" xlink:href="#aq"/><use transform="matrix(0.05,0,0,0.05,22,0)" xlink:href="#aL"/><use transform="matrix(0.05,0,0,0.05,32,0)" xlink:href="#at"/><use transform="matrix(0.05,0,0,0.05,42,0)" xlink:href="#ar"/></g><g id="H"><use transform="matrix(0.05,0,0,0.05,0,0)" xlink:href="#aB"/><use transform="matrix(0.05,0,0,0.05,12,0)" xlink:href="#aq"/><use transform="matrix(0.05,0,0,0.05,22,0)" xlink:href="#aL"/><use transform="matrix(0.05,0,0,0.05,32,0)" xlink:href="#at"/><use transform="matrix(0.05,0,0,0.05,42,0)" xlink:href="#ar"/></g><g id="I"><use transform="matrix(0.05,0,0,0.05,0,0)" xlink:href="#aB"/><use transform="matrix(0.05,0,0,0.05,12,0)" xlink:href="#ar"/><use transform="matrix(0.05,0,0,0.05,17.95,0)" xlink:href="#ax"/><use transform="matrix(0.05,0,0,0.05,27.950000000000003,0)" xlink:href="#au"/><use transform="matrix(0.05,0,0,0.05,36.95,0)" xlink:href="#at"/><use transform="matrix(0.05,0,0,0.05,46.95,0)" xlink:href="#aw"/><use transform="matrix(0.05,0,0,0.05,55.95,0)" xlink:href="#aw"/><use transform="matrix(0.05,0,0,0.05,64.95,0)" xlink:href="#av"/><use transform="matrix(0.05,0,0,0.05,68.9,0)" xlink:href="#ay"/><use transform="matrix(0.05,0,0,0.05,78.9,0)" xlink:href="#aG"/></g><g id="J"><use transform="matrix(0.05,0,0,0.05,0,0)" xlink:href="#ao"/><use transform="matrix(0.05,0,0,0.05,12,0)" xlink:href="#ap"/><use transform="matrix(0.05,0,0,0.05,17,0)" xlink:href="#aS"/><use transform="matrix(0.05,0,0,0.05,27,0)" xlink:href="#aD"/><use transform="matrix(0.05,0,0,0.05,37,0)" xlink:href="#at"/><use transform="matrix(0.05,0,0,0.05,47,0)" xlink:href="#ay"/><use transform="matrix(0.05,0,0,0.05,57,0)" xlink:href="#ap"/></g><path d="M101-234c-31-9-42 10-38 44h38v23H63V0H32v-167H5v-23h27c-7-52 17-82 69-68v24" id="aX"/><g id="K"><use transform="matrix(0.05,0,0,0.05,0,0)" xlink:href="#aT"/><use transform="matrix(0.05,0,0,0.05,5,0)" xlink:href="#ay"/><use transform="matrix(0.05,0,0,0.05,15,0)" xlink:href="#aX"/><use transform="matrix(0.05,0,0,0.05,20,0)" xlink:href="#ax"/><use transform="matrix(0.05,0,0,0.05,30,0)" xlink:href="#ar"/><use transform="matrix(0.05,0,0,0.05,35.95,0)" xlink:href="#aA"/><use transform="matrix(0.05,0,0,0.05,50.900000000000006,0)" xlink:href="#aq"/><use transform="matrix(0.05,0,0,0.05,60.900000000000006,0)" xlink:href="#ap"/><use transform="matrix(0.05,0,0,0.05,65.9,0)" xlink:href="#av"/><use transform="matrix(0.05,0,0,0.05,69.85000000000001,0)" xlink:href="#ax"/><use transform="matrix(0.05,0,0,0.05,79.85000000000001,0)" xlink:href="#ay"/></g><path d="M30 0v-248h187v28H63v79h144v27H63v87h162V0H30" id="aY"/><path d="M141 0L90-78 38 0H4l68-98-65-92h35l48 74 47-74h35l-64 92 68 98h-35" id="aZ"/><g id="L"><use transform="matrix(0.05,0,0,0.05,0,0)" xlink:href="#aY"/><use transform="matrix(0.05,0,0,0.05,12,0)" xlink:href="#aZ"/><use transform="matrix(0.05,0,0,0.05,21,0)" xlink:href="#au"/><use transform="matrix(0.05,0,0,0.05,30,0)" xlink:href="#at"/><use transform="matrix(0.05,0,0,0.05,40,0)" xlink:href="#aJ"/></g><g id="M"><use transform="matrix(0.05,0,0,0.05,0,0)" xlink:href="#ao"/><use transform="matrix(0.05,0,0,0.05,12,0)" xlink:href="#aQ"/><use transform="matrix(0.05,0,0,0.05,22,0)" xlink:href="#at"/><use transform="matrix(0.05,0,0,0.05,32,0)" xlink:href="#at"/><use transform="matrix(0.05,0,0,0.05,42,0)" xlink:href="#ap"/></g><g id="N"><use transform="matrix(0.05,0,0,0.05,0,0)" xlink:href="#aB"/><use transform="matrix(0.05,0,0,0.05,12,0)" xlink:href="#aq"/><use transform="matrix(0.05,0,0,0.05,22,0)" xlink:href="#ap"/><use transform="matrix(0.05,0,0,0.05,27,0)" xlink:href="#aQ"/></g><g id="O"><use transform="matrix(0.05,0,0,0.05,0,0)" xlink:href="#aB"/><use transform="matrix(0.05,0,0,0.05,12,0)" xlink:href="#ar"/><use transform="matrix(0.05,0,0,0.05,17.95,0)" xlink:href="#ax"/><use transform="matrix(0.05,0,0,0.05,27.950000000000003,0)" xlink:href="#au"/><use transform="matrix(0.05,0,0,0.05,36.95,0)" xlink:href="#at"/><use transform="matrix(0.05,0,0,0.05,46.95,0)" xlink:href="#aw"/><use transform="matrix(0.05,0,0,0.05,55.95,0)" xlink:href="#aw"/></g><g id="P"><use transform="matrix(0.05,0,0,0.05,0,0)" xlink:href="#aw"/><use transform="matrix(0.05,0,0,0.05,9,0)" xlink:href="#aQ"/><use transform="matrix(0.05,0,0,0.05,19,0)" xlink:href="#at"/><use transform="matrix(0.05,0,0,0.05,29,0)" xlink:href="#at"/><use transform="matrix(0.05,0,0,0.05,39,0)" xlink:href="#ap"/></g><g id="Q"><use transform="matrix(0.05,0,0,0.05,0,0)" xlink:href="#aO"/><use transform="matrix(0.05,0,0,0.05,12.950000000000001,0)" xlink:href="#ax"/><use transform="matrix(0.05,0,0,0.05,22.950000000000003,0)" xlink:href="#aJ"/><use transform="matrix(0.05,0,0,0.05,26.900000000000002,0)" xlink:href="#aS"/><use transform="matrix(0.05,0,0,0.05,36.900000000000006,0)" xlink:href="#aA"/><use transform="matrix(0.05,0,0,0.05,51.85,0)" xlink:href="#ay"/><use transform="matrix(0.05,0,0,0.05,61.85,0)" xlink:href="#aw"/></g><g id="R"><use transform="matrix(0.05,0,0,0.05,0,0)" xlink:href="#ao"/><use transform="matrix(0.05,0,0,0.05,12,0)" xlink:href="#at"/><use transform="matrix(0.05,0,0,0.05,22,0)" xlink:href="#aJ"/><use transform="matrix(0.05,0,0,0.05,25.950000000000003,0)" xlink:href="#at"/><use transform="matrix(0.05,0,0,0.05,35.95,0)" xlink:href="#au"/><use transform="matrix(0.05,0,0,0.05,44.95,0)" xlink:href="#ap"/></g><g id="S"><use transform="matrix(0.05,0,0,0.05,0,0)" xlink:href="#aH"/><use transform="matrix(0.05,0,0,0.05,12.950000000000001,0)" xlink:href="#aq"/><use transform="matrix(0.05,0,0,0.05,22.950000000000003,0)" xlink:href="#aA"/><use transform="matrix(0.05,0,0,0.05,37.900000000000006,0)" xlink:href="#at"/></g><g id="T"><use transform="matrix(0.05,0,0,0.05,0,0)" xlink:href="#aq"/><use transform="matrix(0.05,0,0,0.05,10,0)" xlink:href="#ay"/><use transform="matrix(0.05,0,0,0.05,20,0)" xlink:href="#aD"/></g><g id="U"><use transform="matrix(0.05,0,0,0.05,0,0)" xlink:href="#aw"/><use transform="matrix(0.05,0,0,0.05,9,0)" xlink:href="#ap"/><use transform="matrix(0.05,0,0,0.05,14,0)" xlink:href="#aS"/><use transform="matrix(0.05,0,0,0.05,24,0)" xlink:href="#aD"/><use transform="matrix(0.05,0,0,0.05,34,0)" xlink:href="#at"/><use transform="matrix(0.05,0,0,0.05,44,0)" xlink:href="#ay"/><use transform="matrix(0.05,0,0,0.05,54,0)" xlink:href="#ap"/></g><g id="V"><use transform="matrix(0.05,0,0,0.05,0,0)" xlink:href="#aT"/><use transform="matrix(0.05,0,0,0.05,5,0)" xlink:href="#as"/></g><g id="W"><use transform="matrix(0.05,0,0,0.05,0,0)" xlink:href="#au"/><use transform="matrix(0.05,0,0,0.05,9,0)" xlink:href="#ax"/><use transform="matrix(0.05,0,0,0.05,19,0)" xlink:href="#aJ"/><use transform="matrix(0.05,0,0,0.05,22.95,0)" xlink:href="#aS"/><use transform="matrix(0.05,0,0,0.05,32.95,0)" xlink:href="#aA"/><use transform="matrix(0.05,0,0,0.05,47.900000000000006,0)" xlink:href="#ay"/><use transform="matrix(0.05,0,0,0.05,57.900000000000006,0)" xlink:href="#aw"/></g><path d="M16-82v-28h88v28H16" id="ba"/><g id="X"><use transform="matrix(0.05,0,0,0.05,0,0)" xlink:href="#ba"/><use transform="matrix(0.05,0,0,0.05,5.95,0)" xlink:href="#aT"/><use transform="matrix(0.05,0,0,0.05,10.95,0)" xlink:href="#aA"/><use transform="matrix(0.05,0,0,0.05,25.899999999999995,0)" xlink:href="#aq"/><use transform="matrix(0.05,0,0,0.05,35.9,0)" xlink:href="#aG"/><use transform="matrix(0.05,0,0,0.05,45.9,0)" xlink:href="#at"/><use transform="matrix(0.05,0,0,0.05,55.900000000000006,0)" xlink:href="#aw"/></g><g id="Y"><use transform="matrix(0.05,0,0,0.05,0,0)" xlink:href="#aB"/><use transform="matrix(0.05,0,0,0.05,12,0)" xlink:href="#aq"/><use transform="matrix(0.05,0,0,0.05,22,0)" xlink:href="#ap"/><use transform="matrix(0.05,0,0,0.05,27,0)" xlink:href="#aQ"/><use transform="matrix(0.05,0,0,0.05,37,0)" xlink:href="#aw"/></g><path d="M143 0L79-87 56-68V0H24v-261h32v163l83-92h37l-77 82L181 0h-38" id="bb"/><g id="Z"><use transform="matrix(0.05,0,0,0.05,0,0)" xlink:href="#ba"/><use transform="matrix(0.05,0,0,0.05,5.95,0)" xlink:href="#aM"/><use transform="matrix(0.05,0,0,0.05,20.900000000000002,0)" xlink:href="#aq"/><use transform="matrix(0.05,0,0,0.05,30.900000000000002,0)" xlink:href="#ar"/><use transform="matrix(0.05,0,0,0.05,36.85,0)" xlink:href="#bb"/></g><g id="aa"><use transform="matrix(0.05,0,0,0.05,0,0)" xlink:href="#aL"/><use transform="matrix(0.05,0,0,0.05,10,0)" xlink:href="#at"/><use transform="matrix(0.05,0,0,0.05,20,0)" xlink:href="#ar"/></g><path d="M145-31C134-9 116 4 85 4 32 4 16-35 15-94c0-59 17-99 70-100 32-1 48 14 60 33 0-11-1-24 2-32h30l-1 268h-32zM93-21c41 0 51-33 51-76s-8-73-50-73c-40 0-46 35-46 75s5 74 45 74" id="bc"/><g id="ab"><use transform="matrix(0.05,0,0,0.05,0,0)" xlink:href="#bc"/><use transform="matrix(0.05,0,0,0.05,10,0)" xlink:href="#aS"/><use transform="matrix(0.05,0,0,0.05,20,0)" xlink:href="#at"/><use transform="matrix(0.05,0,0,0.05,30,0)" xlink:href="#aw"/><use transform="matrix(0.05,0,0,0.05,39,0)" xlink:href="#ap"/><use transform="matrix(0.05,0,0,0.05,44,0)" xlink:href="#av"/><use transform="matrix(0.05,0,0,0.05,47.95,0)" xlink:href="#ax"/><use transform="matrix(0.05,0,0,0.05,57.95,0)" xlink:href="#ay"/></g><g id="ac"><use transform="matrix(0.05,0,0,0.05,0,0)" xlink:href="#ba"/><use transform="matrix(0.05,0,0,0.05,5.95,0)" xlink:href="#aM"/><use transform="matrix(0.05,0,0,0.05,20.900000000000002,0)" xlink:href="#ax"/><use transform="matrix(0.05,0,0,0.05,30.900000000000002,0)" xlink:href="#aD"/><use transform="matrix(0.05,0,0,0.05,40.900000000000006,0)" xlink:href="#at"/><use transform="matrix(0.05,0,0,0.05,50.900000000000006,0)" xlink:href="#aJ"/></g><g id="ad"><use transform="matrix(0.05,0,0,0.05,0,0)" xlink:href="#aN"/><use transform="matrix(0.05,0,0,0.05,12,0)" xlink:href="#ay"/><use transform="matrix(0.05,0,0,0.05,22,0)" xlink:href="#aw"/><use transform="matrix(0.05,0,0,0.05,31,0)" xlink:href="#aC"/><use transform="matrix(0.05,0,0,0.05,43.95,0)" xlink:href="#at"/></g><path d="M27 0v-27h64v-190l-56 39v-29l58-41h29v221h61V0H27" id="bd"/><use transform="matrix(0.05,0,0,0.05,0,0)" xlink:href="#bd" id="ae"/><g id="af"><use transform="matrix(0.05,0,0,0.05,0,0)" xlink:href="#aL"/><use transform="matrix(0.05,0,0,0.05,10,0)" xlink:href="#aq"/><use transform="matrix(0.05,0,0,0.05,20,0)" xlink:href="#aL"/><use transform="matrix(0.05,0,0,0.05,30,0)" xlink:href="#at"/><use transform="matrix(0.05,0,0,0.05,40,0)" xlink:href="#ar"/><use transform="matrix(0.05,0,0,0.05,45.95,0)" xlink:href="#aw"/></g><g id="ag"><use transform="matrix(0.05,0,0,0.05,0,0)" xlink:href="#aq"/><use transform="matrix(0.05,0,0,0.05,10,0)" xlink:href="#ay"/><use transform="matrix(0.05,0,0,0.05,20,0)" xlink:href="#aD"/></g><g id="ah"><use transform="matrix(0.05,0,0,0.05,0,0)" xlink:href="#aG"/><use transform="matrix(0.05,0,0,0.05,10,0)" xlink:href="#ar"/><use transform="matrix(0.05,0,0,0.05,15.949999999999998,0)" xlink:href="#aq"/><use transform="matrix(0.05,0,0,0.05,25.950000000000003,0)" xlink:href="#aD"/><use transform="matrix(0.05,0,0,0.05,35.95,0)" xlink:href="#av"/><use transform="matrix(0.05,0,0,0.05,39.900000000000006,0)" xlink:href="#ay"/><use transform="matrix(0.05,0,0,0.05,49.900000000000006,0)" xlink:href="#aG"/></g><path d="M179-190L93 31C79 59 56 82 12 73V49c39 6 53-20 64-50L1-190h34L92-34l54-156h33" id="be"/><g id="ai"><use transform="matrix(0.05,0,0,0.05,0,0)" xlink:href="#as"/><use transform="matrix(0.05,0,0,0.05,12.950000000000001,0)" xlink:href="#av"/><use transform="matrix(0.05,0,0,0.05,16.900000000000002,0)" xlink:href="#aw"/><use transform="matrix(0.05,0,0,0.05,25.900000000000002,0)" xlink:href="#aL"/><use transform="matrix(0.05,0,0,0.05,35.900000000000006,0)" xlink:href="#aJ"/><use transform="matrix(0.05,0,0,0.05,39.85000000000001,0)" xlink:href="#aq"/><use transform="matrix(0.05,0,0,0.05,49.85000000000001,0)" xlink:href="#be"/></g><g id="aj"><use transform="matrix(0.05,0,0,0.05,0,0)" xlink:href="#ao"/><use transform="matrix(0.05,0,0,0.05,12,0)" xlink:href="#ap"/><use transform="matrix(0.05,0,0,0.05,17,0)" xlink:href="#aS"/><use transform="matrix(0.05,0,0,0.05,27,0)" xlink:href="#aD"/><use transform="matrix(0.05,0,0,0.05,37,0)" xlink:href="#at"/><use transform="matrix(0.05,0,0,0.05,47,0)" xlink:href="#ay"/><use transform="matrix(0.05,0,0,0.05,57,0)" xlink:href="#ap"/><use transform="matrix(0.05,0,0,0.05,62,0)" xlink:href="#aw"/></g><g id="ak"><use transform="matrix(0.05,0,0,0.05,0,0)" xlink:href="#aG"/><use transform="matrix(0.05,0,0,0.05,10,0)" xlink:href="#ar"/><use transform="matrix(0.05,0,0,0.05,15.949999999999998,0)" xlink:href="#aq"/><use transform="matrix(0.05,0,0,0.05,25.950000000000003,0)" xlink:href="#aD"/><use transform="matrix(0.05,0,0,0.05,35.95,0)" xlink:href="#at"/><use transform="matrix(0.05,0,0,0.05,45.95,0)" xlink:href="#aw"/></g><g id="al"><use transform="matrix(0.05,0,0,0.05,0,0)" xlink:href="#aO"/><use transform="matrix(0.05,0,0,0.05,12.950000000000001,0)" xlink:href="#ar"/><use transform="matrix(0.05,0,0,0.05,18.900000000000002,0)" xlink:href="#at"/><use transform="matrix(0.05,0,0,0.05,28.900000000000002,0)" xlink:href="#aq"/><use transform="matrix(0.05,0,0,0.05,38.900000000000006,0)" xlink:href="#ap"/><use transform="matrix(0.05,0,0,0.05,43.900000000000006,0)" xlink:href="#at"/></g><g id="am"><use transform="matrix(0.05,0,0,0.05,0,0)" xlink:href="#aF"/><use transform="matrix(0.05,0,0,0.05,12.950000000000001,0)" xlink:href="#at"/><use transform="matrix(0.05,0,0,0.05,22.950000000000003,0)" xlink:href="#aL"/><use transform="matrix(0.05,0,0,0.05,32.95,0)" xlink:href="#ax"/><use transform="matrix(0.05,0,0,0.05,42.95,0)" xlink:href="#ar"/><use transform="matrix(0.05,0,0,0.05,48.900000000000006,0)" xlink:href="#ap"/><use transform="matrix(0.05,0,0,0.05,53.900000000000006,0)" xlink:href="#aw"/></g><g id="an"><use transform="matrix(0.05,0,0,0.05,0,0)" xlink:href="#ao"/><use transform="matrix(0.05,0,0,0.05,12,0)" xlink:href="#ap"/><use transform="matrix(0.05,0,0,0.05,17,0)" xlink:href="#ax"/><use transform="matrix(0.05,0,0,0.05,27,0)" xlink:href="#aL"/></g></defs></g></svg>